<svg xmlns="http://www.w3.org/2000/svg" xmlns:xlink="http://www.w3.org/1999/xlink" width="65" height="59.758" viewBox="0 0 65 59.758"><defs><clipPath id="b"><rect width="65" height="59.758"/></clipPath></defs><g id="a" clip-path="url(#b)"><rect width="65" height="59.758" fill="#fff"/><g transform="translate(-373 -25)"><g opacity="0.702"><g transform="translate(375 26)" fill="none" stroke="#fff" stroke-width="2"><rect width="62" height="57" rx="3" stroke="none"/><rect x="1" y="1" width="60" height="55" rx="2" fill="none"/></g><g fill="none" stroke-linejoin="round"><path d="M377,26h58a2,2,0,0,1,2,2V81a2,2,0,0,1-2,2H377a2,2,0,0,1-2-2V28A2,2,0,0,1,377,26Z" stroke="none"/><path d="M 377 28 L 377 81 L 435 81 L 435 28 L 377 28 M 377 26 L 435 26 C 436.1045532226562 26 437 26.89543151855469 437 28 L 437 81 C 437 82.10456848144531 436.1045532226562 83 435 83 L 377 83 C 375.8954162597656 83 375 82.10456848144531 375 81 L 375 28 C 375 26.89543151855469 375.8954162597656 26 377 26 Z" stroke="none"/></g></g><text transform="translate(406 50)" fill="#790bb5" font-size="21" font-family="Poppins-Bold, Poppins" letter-spacing="0.07em" font-weight="700"><tspan x="-15.383" y="0">UX</tspan><tspan fill="#10131a" font-family="Poppins-Regular, Poppins" font-weight="400" letter-spacing="0.05em"><tspan x="-22.659" y="23">ATIK</tspan></tspan></text></g></g></svg>