<svg height="384pt" viewBox="0 0 384 384" width="384pt" xmlns="http://www.w3.org/2000/svg"><path d="m368 352h-320c-8.824219 0-16-7.175781-16-16v-320c0-8.832031-7.167969-16-16-16s-16 7.167969-16 16v320c0 26.472656 21.527344 48 48 48h320c8.832031 0 16-7.167969 16-16s-7.167969-16-16-16zm0 0"/><path d="m383.070312 74.847656c-.429687-1.261718-.964843-2.472656-1.6875-3.566406-.03125-.058594-.054687-.113281-.085937-.167969-.769531-1.144531-1.710937-2.136719-2.738281-3.050781-.246094-.222656-.503906-.429688-.773438-.636719-1.113281-.867187-2.289062-1.632812-3.609375-2.1875 0 0 0 0-.007812 0-1.273438-.535156-2.648438-.839843-4.054688-1.023437-.34375-.046875-.679687-.078125-1.023437-.101563-.371094-.023437-.714844-.113281-1.089844-.113281h-56c-8.832031 0-16 7.167969-16 16s7.167969 16 16 16h16.921875l-56.921875 56c-.207031-.214844-.441406-.433594-.664062-.632812l-25.097657-22.367188c-12.503906-12.097656-32.511719-11.96875-44.8125.3125l-132.683593 131.3125c-6.277344 6.214844-6.328126 16.351562-.117188 22.632812 3.136719 3.15625 7.246094 4.742188 11.375 4.742188 4.070312 0 8.136719-1.535156 11.257812-4.625l132.742188-131.375c.207031.214844.441406.433594.664062.632812l25.089844 22.367188c6 5.808594 13.878906 9 22.246094 9 8.542969 0 16.574219-3.328125 22.527344-9.28125l57.472656-56.535156v17.816406c0 8.832031 7.167969 16 16 16s16-7.167969 16-16v-56c0-1.457031-.257812-2.847656-.625-4.191406-.085938-.328125-.191406-.640625-.304688-.960938zm0 0"/></svg>